<svg width="92.156mm" height="37.922mm" version="1.1" viewBox="0 0 92.156 37.922" xmlns="http://www.w3.org/2000/svg">
 <path transform="translate(-89.377 -20.322)" d="m138.2 20.322c-0.28874-0.001087-0.57732 0.001713-0.86609 0.008268-0.75528 0.01686-1.5105 0.050407-2.2655 0.069247-0.80141 0-1.2893 0.44152-1.4671 0.9803-0.12412 0.22349-0.19844 0.49843-0.19844 0.82631v0.54777 1.0335 1.2661 1.2289 1.4759c0 0.67934 1.5e-4 1.3588 0 2.0381-1.4e-4 0.83802-5.3e-4 1.6761-0.00103 2.5141-3e-4 0.75299 0 1.5058 0 2.2588 0.0165 0.81383 0.02927 1.6283 0.09973 2.4396 0.0618 0.73725 0.11711 1.4751 0.16537 2.2133 0.0466 0.7089 0.06518 1.4194 0.11575 2.128 0.0526 0.77992 0.09349 1.5611 0.09819 2.343 0.0165 0.63058 0.02965 1.2609 0.07855 1.8898 0.0598 0.91034 0.08968 1.8226 0.1819 2.7306 0.0598 0.55312 0.13587 1.103 0.22479 1.6521 0.33851 2.0318 3.2119 1.5532 2.8732-0.47852h0.00155c-0.0816-0.49474-0.14783-0.99074-0.20205-1.4893-0.085-0.8668-0.114-1.7377-0.17054-2.6066-0.0466-0.5791-0.06474-1.1593-0.07234-1.7399 0-0.83458-0.04676-1.6686-0.10697-2.5011-0.0526-0.7056-0.06928-1.4124-0.11524-2.1182-0.04355-0.70693-0.10011-1.4132-0.15865-2.1192 3.3e-4 -7.36e-4 0.00207 3.8e-5 0.00207-0.001034 0-4.94e-4 -0.00185-9e-5 -0.00207-5.17e-4 -1.1e-4 -0.001369 1.1e-4 -0.002764 0-0.004134 0.20867 0.002494 0.41715 0.036478 0.62529 0.046509 0.64418 0.05996 1.2914 0.13999 1.9389 0.079065 0.56449-0.0431 1.1285-0.084987 1.6924-0.13384 0.67135-0.07617 1.3368-0.1858 2.0045-0.28629 0.6664-0.07259 1.3405-0.13678 1.9756-0.36639 0.60577-0.22564 1.1982-0.48601 1.7332-0.85421 0.59086-0.42157 1.1624-0.87778 1.6211-1.4454 0.36706-0.50377 0.68009-1.0388 0.94878-1.6015 0.28263-0.57596 0.56066-1.1561 0.80409-1.7498 0.26577-0.69184 0.51333-1.3954 0.55294-2.143 0.0351-0.7819-0.01643-1.5627-0.21084-2.3234-0.17652-0.67183-0.38979-1.3336-0.7121-1.9518-0.3104-0.63784-0.59682-1.2987-1.1038-1.8118-0.23371-0.24039-0.29272-0.31676-0.56121-0.52503-0.39791-0.30819-0.85088-0.5405-1.3198-0.71882-0.13289-0.04545-0.26492-0.09549-0.39946-0.13539-0.61584-0.18211-1.26-0.23193-1.8945-0.30799-1.1034-0.10126-2.2078-0.19061-3.3135-0.26303-0.86442-0.054225-1.7305-0.089758-2.5968-0.093018zm41.735 0.42943c-0.20838-0.014498-0.43632 0.013663-0.68058 0.095085h0.00879c-0.62477 0.17606-1.2586 0.3238-1.8846 0.49816-1.159 0.2913-2.1579 0.76003-3.1838 1.3637-1.1265 0.68766-2.1889 1.4728-3.1548 2.3714-0.6149 0.61727-1.1784 1.3173-1.5053 2.1348-0.23537 0.58895-0.25826 0.82976-0.38344 1.4387-0.15504 1.0869-0.12143 2.1995 0.14832 3.2665 0.0526 0.20227 0.11908 0.39989 0.17725 0.59996 0.38918 1.0573 0.98659 2.0608 1.7689 2.8784 0.16958 0.17735 0.35709 0.33697 0.53537 0.5054 0.82239 0.7398 1.7754 1.3034 2.7063 1.8908 0.46898 0.28174 0.94479 0.55819 1.3679 0.90795 0.19934 0.16492 0.47436 0.43084 0.65836 0.6041 0.61997 0.60991 1.1543 1.305 1.5332 2.0888 0.31998 0.7243 0.44496 1.5022 0.51779 2.2841 0.0863 1.0515 0.0803 2.1059 0 3.1574-0.0893 0.91131-0.30566 1.8125-0.632 2.6675-0.33731 0.84526-0.80928 1.6202-1.3488 2.3492-0.3315 0.43514-0.68576 0.8593-1.1844 1.1043-0.49812 0.23728-1.0151 0.41748-1.5431 0.57309-0.48415 0.18608-0.98916 0.28432-1.5002 0.3576-0.72761 0.11781-1.4614 0.18693-2.1895 0.30127-0.53192 0.08862-1.0668 0.15874-1.5999 0.2403-0.10481 0.02215-0.20833 0.044325-0.31212 0.066145-2.0108 0.44656-1.3793 3.2903 0.63148 2.8438 0.0407-0.01087 0.08148-0.02058 0.12351-0.03049 0.5383-0.08278 1.0782-0.15218 1.6154-0.24236 0.71556-0.11547 1.438-0.17634 2.1528-0.29611 0.64622-0.09553 1.2893-0.21752 1.9038-0.44597 0.73933-0.21837 1.4634-0.48013 2.1518-0.83096 0.15273-0.09001 0.30888-0.17217 0.45631-0.26975 0.65297-0.43252 1.1688-1.0282 1.6412-1.6443 0.69614-0.95039 1.3044-1.9609 1.7337-3.0623 0.40838-1.1219 0.7077-2.2867 0.80667-3.4799 0.0816-1.2122 0.09298-2.4283-0.01602-3.6401-0.11405-1.139-0.32309-2.2667-0.81493-3.3109-0.0925-0.17874-0.17627-0.3615-0.27544-0.5364-0.49638-0.87714-1.1551-1.658-1.866-2.3673-0.75528-0.70711-1.5517-1.3595-2.467-1.8526-0.78271-0.49334-1.5886-0.95948-2.2882-1.571-0.10182-0.08909-0.2087-0.17173-0.30489-0.26717-0.51096-0.51053-0.91051-1.1525-1.1834-1.8169-0.25223-0.7996-0.37038-1.6237-0.25373-2.4619 0.0297-0.15834 0.09221-0.56633 0.15244-0.74207 0.16892-0.49288 0.51475-0.90397 0.87282-1.2697 0.79984-0.7646 1.7111-1.4009 2.6469-1.988 0.77797-0.46754 1.5913-0.8486 2.4784-1.063 0.67254-0.18776 1.3543-0.34129 2.0231-0.54054 1.7099-0.56995 1.2184-2.7572-0.2403-2.8587zm-41.736 2.4846c0.80379 0.003263 1.6076 0.036094 2.4097 0.086816 1.0781 0.07061 2.155 0.15758 3.2308 0.25632 0.53714 0.063799 1.0837 0.095486 1.5927 0.29042 0.28496 0.10386 0.53319 0.26384 0.72864 0.49454 0.28066 0.31054 0.42374 0.71594 0.6041 1.0878 0.23834 0.44586 0.38678 0.9258 0.51263 1.4128 0.119 0.47249 0.15063 0.95614 0.11989 1.4407-0.035 0.43613-0.20682 0.84087-0.36226 1.2449-0.21552 0.50995-0.4525 1.0118-0.69814 1.5079-0.19934 0.40205-0.40693 0.80009-0.67903 1.1581-0.28957 0.29923-0.61563 0.55951-0.95757 0.79633-0.33023 0.21887-0.69563 0.36626-1.0656 0.5023-0.41367 0.12717-0.84988 0.15584-1.278 0.20206-0.67284 0.09339-1.3409 0.21189-2.0164 0.28732-0.52897 0.0431-1.0582 0.083823-1.5875 0.12402-0.48355 0.04135-0.96716-0.03044-1.448-0.07493-0.33123-0.036292-0.66168-0.058829-0.99322-0.045992-0.00289-0.56536 0.0031-1.1307 0.0031-1.696 4.5e-4 -0.83813 9.5e-4 -1.6764 0.00103-2.5146 1.7e-4 -0.67953 0-1.3591 0-2.0386v-1.4759-1.2289-1.2661-0.5116c0.35978-0.01223 0.71955-0.024355 1.0795-0.032556 0.26791-0.00595 0.53564-0.008323 0.80357-0.007235zm-34.755 7.613c-0.21719 0.05709-0.44198 0.094289-0.65319 0.17105-0.1107 0.0402-0.20751 0.10951-0.30438 0.17622-0.40488 0.27936-0.70502 0.67086-0.85731 1.1389-0.0095 0.033254-0.01821 0.066121-0.02584 0.098702-0.36026 0.5321-0.38475 1.2927 0.27234 1.9203 0.14511 0.11408 0.29067 0.2279 0.43615 0.3421 0.22776 0.07954 0.44453 0.20258 0.68316 0.23875 0.71463 0.10852 1.4263-0.25567 1.8795-0.78807 0.11239-0.13206 0.20149-0.28299 0.30231-0.42426 0.21686-0.56203 0.35717-0.72061 0.22944-1.3849-0.12826-0.66554-0.6668-1.216-1.3022-1.4154-0.21155-0.06632-0.43958-0.048631-0.6599-0.073381zm52.254 0.185c-0.54536 0.045007-1.0714 0.39676-1.2836 1.1395h-0.00155c-0.40492 1.3972-0.55287 2.8417-0.62477 4.2886-0.0165 2.2598 0.20006 4.5168 0.5116 6.7531 0.25288 1.9344 0.667 3.8429 1.3973 5.6539 0.63929 1.2932 1.659 2.3651 2.9543 3.0169 0.24991 0.12595 0.51606 0.21771 0.77412 0.3266 1.4098 0.46066 2.8542 0.35546 4.1393-0.40669 0.24065-0.14257 0.45827-0.32122 0.68729-0.48162 1.1496-0.9873 2.0472-2.2265 2.5854-3.6473 0.12-0.31734 0.2064-0.64665 0.30954-0.96997 0.58788-2.1742 0.48341-4.4302 0.35347-6.6539-0.13091-2.1534-0.21558-4.3076-0.47078-6.4508-0.0351-0.22115-0.07585-0.44237-0.11265-0.66352-0.35248-2.0294-3.2221-1.5307-2.8696 0.49868 0.0297 0.17018 0.06005 0.34044 0.09095 0.51056 0.24991 2.0853 0.3243 4.182 0.45527 6.2771 0.11241 1.8736 0.22979 3.779-0.22738 5.6193-0.0674 0.22694-0.12408 0.45728-0.20309 0.68058-0.33089 0.93924-0.90126 1.7605-1.6216 2.4427-0.69193 0.53983-1.1273 0.77476-2.0257 0.54312-0.89697-0.32941-1.6651-0.88367-2.1208-1.7446-0.65868-1.5785-0.97286-3.2679-1.2092-4.9558-0.29056-2.057-0.48047-4.1333-0.48628-6.212 0.0526-1.2227 0.17797-2.4433 0.51573-3.6246 0.35357-1.2378-0.60828-2.0149-1.5172-1.9399zm-42.916 3.7254c-0.14546-0.003027-0.29241 0.003884-0.49816 0.030489-0.73587 0.09468-1.3997 0.41606-1.9399 0.92191-0.12164 0.13768-0.25471 0.26543-0.36483 0.4129-0.46024 0.61919-0.66582 1.3723-0.87695 2.1017-0.24528 0.95881-0.44163 1.929-0.56689 2.9115-0.17289 1.3337-0.34649 2.6689-0.4129 4.0132-0.0598 1.0724-0.13581 2.1434-0.21084 3.2148-0.0232 0.65401-0.03485 1.3076-0.02945 1.9622 0 2.0598 2.913 2.0598 2.913 0h-0.00362c0-0.61456 4.3e-4 -1.2282 0.02946-1.8423 0.077-1.0566 0.14993-2.1136 0.20877-3.1714 0.0634-1.2738 0.22943-2.5382 0.39326-3.8018 0.11069-0.86417 0.28187-1.7175 0.49919-2.5606 0.0893-0.31652 0.18375-0.63423 0.30903-0.93896 0.0297-0.0678 0.0525-0.13758 0.0925-0.19999 0.0165-0.02083 0.04081-0.030002 0.05891-0.044442 0.0232-0.01983 0.0524-0.039041 0.0801-0.058911 0.18347-0.08925 0.40341-0.03909 0.59789-0.01757 0.16661 0.03669 0.36512 0.043968 0.50437 0.15761 0.0165 0.01619 0.0296 0.041299 0.0465 0.062529 0.0232 0.03614 0.04655 0.074166 0.07235 0.11007 0.0526 0.07709 0.10937 0.15256 0.16485 0.22893 0.51443 0.79448 0.75057 1.7154 0.98237 2.6215 0.35073 1.4278 0.45556 2.8968 0.5581 4.3584 0.0803 1.2091 0.15995 2.4184 0.24392 3.6272 0.0351 0.55539 0.01627 0.28156 0.05787 0.8201 0.15966 2.0536 3.0639 1.8278 2.9042-0.22583-0.0407-0.50377-0.01669-0.23822-0.05839-0.79633-0.0833-1.2097-0.16425-2.4197-0.24392-3.6298-0.11603-1.6376-0.24252-3.2818-0.64234-4.8798-0.13389-0.5195-0.20591-0.82978-0.37258-1.34-0.2704-0.83018-0.6283-1.6306-1.1338-2.3461-0.33555-0.4158-0.46853-0.62939-0.90279-0.9617-0.57271-0.4377-1.2643-0.63267-1.9689-0.7121-0.20071-0.0114-0.34496-0.024362-0.49041-0.027388zm-18.501 0.68213c-0.14546-0.003027-0.29189 0.003367-0.49764 0.029972-0.73587 0.09468-1.3996 0.41606-1.9399 0.92191-0.12165 0.13768-0.25527 0.26542-0.36535 0.4129-0.46025 0.61919-0.66582 1.3728-0.87695 2.1022-0.24528 0.9588-0.4416 1.9285-0.56689 2.9109-0.17289 1.3337-0.34597 2.6689-0.41238 4.0132-0.0601 1.0724-0.13581 2.1434-0.21084 3.2148-0.0232 0.65401-0.035372 1.3076-0.029972 1.9622 0 2.0598 2.913 2.0598 2.913 0l-0.003101 5.16e-4c0-0.61456 9.03e-4 -1.2287 0.029973-1.8428 0.077-1.0566 0.14942-2.1131 0.20826-3.1709 0.0634-1.2738 0.22941-2.5387 0.39326-3.8024 0.1107-0.86417 0.28243-1.7175 0.49971-2.5606 0.089299-0.31652 0.18322-0.63423 0.30851-0.93896 0.0297-0.0678 0.052601-0.13709 0.092501-0.19947 0.0165-0.02083 0.040811-0.030519 0.058911-0.044959 0.0232-0.01983 0.052398-0.039041 0.080098-0.058911 0.18347-0.08925 0.40343-0.03909 0.5979-0.01757 0.16661 0.03669 0.36513 0.044454 0.50436 0.15813 0.0165 0.01619 0.029608 0.041299 0.046508 0.062529 0.0232 0.03614 0.046847 0.073649 0.072347 0.10955 0.0526 0.07709 0.10937 0.15256 0.16485 0.22893 0.51443 0.79448 0.75006 1.7154 0.98185 2.6215 0.35074 1.4278 0.45611 2.8968 0.55862 4.3584 0.0803 1.2091 0.15943 2.4184 0.2434 3.6272 0.035 0.55538 0.016694 0.28208 0.058394 0.82062 0.15967 2.0536 3.0639 1.8278 2.9042-0.22583-0.0407-0.50377-0.01669-0.23822-0.05839-0.79633-0.083304-1.2097-0.16425-2.4197-0.24392-3.6298-0.11603-1.6376-0.24304-3.2823-0.64285-4.8803-0.13389-0.5195-0.20543-0.82926-0.37207-1.3395-0.2704-0.83018-0.62833-1.6311-1.1338-2.3466-0.33558-0.4158-0.46902-0.62939-0.9033-0.9617-0.57267-0.4377-1.2643-0.63267-1.9689-0.7121-0.20071-0.0114-0.34495-0.023845-0.49041-0.026871zm30.871 0.28887c-0.73678 0.01866-1.4451 0.21403-2.1229 0.55604-0.17652 0.08909-0.34438 0.19469-0.51625 0.29197-0.85614 0.54473-1.5668 1.2799-2.1058 2.1384-0.10482 0.16661-0.19568 0.34147-0.29353 0.51211-0.44571 0.89236-0.71637 1.8733-0.80356 2.8675-0.0165 0.20022-0.01626 0.40128-0.02946 0.60203-0.0165 1.047 0.2506 2.0667 0.71727 3.0014 0.091 0.1833 0.19797 0.35863 0.29714 0.53795 0.51268 0.8161 1.101 1.5914 1.7529 2.3022 0.14314 0.15666 0.29502 0.30585 0.44235 0.45889 0.57502 0.55795 1.1663 1.113 1.8531 1.5332 0.49056 0.30022 0.61829 0.33226 1.1426 0.55656 1.0905 0.40362 2.2551 0.47008 3.4055 0.50643 0.69655 0.01223 1.3931 0.027391 2.0882-0.025839 2.0528-0.17004 1.8121-3.0733-0.24082-2.9032-0.5844 0.05477-1.1727 0.01527-1.7585 0.01757-0.79782-0.02314-1.6106-0.046617-2.3787-0.28525-0.28098-0.11005-0.37479-0.13473-0.63872-0.28732-0.51969-0.30026-0.9484-0.73205-1.3818-1.14-0.1107-0.11424-0.22663-0.22517-0.33486-0.34261-0.25247-0.2735-0.49322-0.5588-0.72244-0.85318 0.49746 0.056551 0.99925 0.07268 1.4991 0.033073 0.43809-0.03494 0.60692-0.076231 1.0356-0.15348 0.7559-0.15963 1.5169-0.34656 2.221-0.67283 0.1385-0.064619 0.27352-0.13982 0.41031-0.20981 0.59225-0.34967 1.1027-0.80661 1.4221-1.4258 0.23305-0.45175 0.23908-0.62684 0.3514-1.1219 0.0165-0.22657 0.04664-0.45295 0.03514-0.67954-0.0526-1.0057-0.46121-2.1388-0.94103-3.02-0.119-0.21755-0.25891-0.42276-0.38809-0.63407-0.53718-0.75733-1.2225-1.3939-2.0779-1.7746-0.49519-0.22036-0.67838-0.23353-1.1932-0.34468-0.25176-0.034098-0.50061-0.047561-0.7462-0.041341zm-21.814 0.26355c-0.72826 0-1.4562 0.44278-1.4562 1.3291h0.00207c-0.0407 0.65078-0.04074 1.3029-0.03514 1.9544 0.0351 1.0384 0.10009 2.0756 0.13745 3.114 0.0351 0.83327 0.08468 1.6663 0.14315 2.4986 0.0466 0.75256 0.12465 1.5028 0.20464 2.2531 0.0711 0.55352 0.12033 1.1089 0.17156 1.664 0.0297 0.50343 0.05815 1.0072 0.09095 1.5105 0.0165 0.2549-3.7e-4 0.12355 0.03463 0.39326 0.19504 1.7647 3.0954 1.527 2.9001-0.23771-0.0232-0.17402-0.01626-0.073043-0.02946-0.30282-0.0351-0.51984-0.0599-1.0398-0.0956-1.5596-0.0526-0.56498-0.10162-1.13-0.17467-1.6934-0.077-0.72571-0.15508-1.4518-0.1974-2.1797-0.0582-0.80714-0.10479-1.615-0.13849-2.4231-0.0351-1.0208-0.09855-2.0401-0.13591-3.0608 0-0.64371 4e-5 -1.2876 0.03514-1.9306 0-0.88634-0.7285-1.3291-1.4568-1.3291zm44.864 1.8996c-0.72826 0-1.4568 0.51523-1.4568 1.5451l5.2e-4 -5.17e-4v1.3627c-0.0232 0.34397-0.0581 0.68683-0.077 1.0309-0.0165 0.34612-0.01654 0.69273-0.01654 1.0392-6.3e-4 0.47622-1.7e-4 0.95215 0 1.4283-0.0165 0.74397 0.06149 1.4839 0.16795 2.219 0.11404 0.66321 0.26415 1.3197 0.38602 1.9813 0.10782 0.5766 0.19915 1.156 0.26097 1.7394 0.077 0.46171 0.10497 0.92876 0.15089 1.3937 0.0466 0.47557 0.09382 0.95106 0.13281 1.4273 0.0165 0.51816 0.08316 1.0331 0.11524 1.5503 0.0466 0.40159 0.0525 0.8075 0.11059 1.2077 0.0165 0.10958 0.01661 0.22364 0.05891 0.32711 0.0955 0.24872 0.22848 0.4814 0.34261 0.72192 0.18049 0.17031 0.34465 0.35955 0.54157 0.51108 0.58964 0.4546 1.5086 0.60781 2.2293 0.72502 0.84629 0.12211 1.7029 0.12807 2.5559 0.13746 0.80479 0.0047 1.6097 0.00305 2.4143 0.00155 0.45268-7.67e-4 0.90497-0.00135 1.3575-0.00155 0.22545-1.32e-4 0.45061 0 0.67593 0 2.0598-3e-5 2.0598-2.913 0-2.913-0.22611 0-0.45232-1.32e-4 -0.67799 0-0.45328 3.44e-4 -0.90714 9.51e-4 -1.3606 0.001551-0.79251 0.0013-1.5846 0.002849-2.3771-0.001551-0.71059-0.0077-1.4245-0.007564-2.1301-0.10129-0.25454-0.03904-0.50675-0.084619-0.75861-0.13953-0.00787-0.001778-0.01546-0.003766-0.02326-0.005684-0.01082-0.13323-0.01959-0.26648-0.031-0.39894 0-0.08665-0.01656-0.17322-0.02326-0.25993-0.0351-0.53535-0.09709-1.0688-0.11989-1.6051-0.0407-0.4945-0.08959-0.98821-0.13849-1.4821-0.0526-0.46847-0.07234-0.94036-0.15296-1.4056-0.0711-0.65782-0.17055-1.312-0.29352-1.9622-0.11702-0.62555-0.25329-1.2471-0.36794-1.8733-0.0896-0.5944-0.14969-1.1933-0.13746-1.7952-1.7e-4 -0.47307-9.2e-4 -0.9465-5.2e-4 -1.4196 8.4e-4 -0.2948 0.00104-0.58968 0.01654-0.88418 0.0232-0.3985 0.07215-0.79449 0.08165-1.1937v-1.3627c0-1.0299-0.72798-1.5451-1.4562-1.5451zm-22.857 0.73742c0.16761 0.0238 0.27825 0.03202 0.43976 0.0863 0.38392 0.12915 0.67925 0.40726 0.92294 0.7214 0.0786 0.12118 0.16548 0.23743 0.2372 0.36328 0.16199 0.28558 0.31491 0.6438 0.4284 0.95033 0.0466 0.13504 0.18406 0.54388 0.2191 0.7245 0.0165 0.06198 0.01654 0.12578 0.01654 0.18862-0.0232 0.32776 0.0297 0.30599-0.26975 0.52865-0.55928 0.31054-1.1845 0.46829-1.8076 0.59686-0.25387 0.04892-0.3956 0.082719-0.65113 0.108-0.48295 0.047769-0.97106 0.015962-1.4469-0.076998-0.32858-0.07276-0.64042-0.15517-0.95601-0.27285-0.0526-0.01918-0.10206-0.041118-0.15296-0.059428-0.0165-0.0047-0.02283-0.001301-0.03463-0.006201-0.0165-0.0077-0.0296-0.021966-0.0465-0.032556-0.0111-0.009251-0.02247-0.01642-0.03359-0.025322 0.04343-0.60776 0.19654-1.2149 0.44855-1.7689 0.0582-0.10126 0.10471-0.20522 0.16485-0.30386 0.29784-0.49369 0.67898-0.93245 1.1591-1.2557 0.41655-0.25464 0.8593-0.49216 1.3627-0.46612z" fill="currentColor" stroke-width="0"/>
</svg>
